<svg width="108" height="32" viewBox="0 0 108 32" fill="none" xmlns="http://www.w3.org/2000/svg">
<path d="M29.1419 24.9163V13.7034L27.6306 13.4601V12.131H30.4853C30.8212 12.131 31.2317 12.1123 31.7168 12.0749C32.5129 12.025 33.1659 12 33.6759 12C35.3303 12 36.599 12.3182 37.4822 12.9547C38.3653 13.5911 38.8069 14.6706 38.8069 16.1931C38.8069 17.1415 38.5706 17.9652 38.0979 18.664C37.6252 19.3629 36.9846 19.8995 36.1761 20.2739C35.38 20.6483 34.5031 20.8355 33.5453 20.8355C32.6621 20.8355 32.0588 20.8479 31.7354 20.8729V24.9163L34.0491 25.2532V26.3202H27.5V25.2532L29.1419 24.9163ZM31.7354 19.4502C32.1584 19.5251 32.7057 19.5626 33.3774 19.5626C34.2481 19.5626 34.9322 19.288 35.4298 18.7389C35.9398 18.1898 36.1948 17.3163 36.1948 16.1182C36.1948 15.2072 35.9273 14.5084 35.3925 14.0217C34.8576 13.535 34.1361 13.2916 33.2281 13.2916C32.6559 13.2916 32.1584 13.3478 31.7354 13.4601V19.4502Z" fill="#08090D"/>
<path d="M44.4486 15.8C45.6303 15.8 46.5507 16.1307 47.21 16.7921C47.8693 17.4535 48.23 18.3957 48.2922 19.6187C48.3046 20.043 48.286 20.4361 48.2362 20.798C48.1989 21.1599 48.174 21.3846 48.1616 21.4719H41.6871C41.7369 22.5826 42.0292 23.4437 42.5641 24.0552C43.1114 24.6542 43.8826 24.9537 44.8777 24.9537C45.3255 24.9537 45.7982 24.91 46.2957 24.8227C46.8057 24.7228 47.2411 24.5856 47.6018 24.4108L48.031 25.3842C47.608 25.7461 47.0172 26.0332 46.2584 26.2453C45.4997 26.4575 44.7533 26.5635 44.0194 26.5635C42.4273 26.5635 41.1958 26.1018 40.3251 25.1783C39.4668 24.2548 39.0377 22.9819 39.0377 21.3596C39.0377 20.2864 39.2678 19.3317 39.728 18.4956C40.1883 17.647 40.8289 16.9855 41.6498 16.5113C42.4708 16.0371 43.4037 15.8 44.4486 15.8ZM43.9448 16.9793C43.3104 16.9793 42.7942 17.2539 42.3962 17.803C41.9981 18.3396 41.7618 19.1133 41.6871 20.1241H45.6614C45.6862 19.8246 45.6987 19.5938 45.6987 19.4315C45.6987 18.7202 45.5618 18.1961 45.2882 17.8591C45.0892 17.2726 44.6414 16.9793 43.9448 16.9793Z" fill="#08090D"/>
<path d="M54.7667 15.8C55.9484 15.8 56.8689 16.1307 57.5282 16.7921C58.1874 17.4535 58.5482 18.3957 58.6103 19.6187C58.6228 20.043 58.6041 20.4361 58.5544 20.798C58.5171 21.1599 58.4922 21.3846 58.4797 21.4719H52.0053C52.0551 22.5826 52.3474 23.4437 52.8823 24.0552C53.4296 24.6542 54.2008 24.9537 55.1959 24.9537C55.6437 24.9537 56.1164 24.91 56.6139 24.8227C57.1239 24.7228 57.5593 24.5856 57.92 24.4108L58.3491 25.3842C57.9262 25.7461 57.3354 26.0332 56.5766 26.2453C55.8178 26.4575 55.0715 26.5635 54.3376 26.5635C52.7454 26.5635 51.514 26.1018 50.6433 25.1783C49.785 24.2548 49.3558 22.9819 49.3558 21.3596C49.3558 20.2864 49.586 19.3317 50.0462 18.4956C50.5064 17.647 51.147 16.9855 51.968 16.5113C52.789 16.0371 53.7219 15.8 54.7667 15.8ZM54.263 16.9793C53.6286 16.9793 53.1124 17.2539 52.7143 17.803C52.3163 18.3396 52.08 19.1133 52.0053 20.1241H55.9795C56.0044 19.8246 56.0168 19.5938 56.0168 19.4315C56.0168 18.7202 55.88 18.1961 55.6064 17.8591C55.4073 17.2726 54.9595 16.9793 54.263 16.9793Z" fill="#08090D"/>
<path d="M60.7562 25.0473V18.4768L59.4874 17.6345V16.736L62.4541 15.8374L63.0139 16.0246V17.6532C63.188 17.2039 63.5674 16.7921 64.152 16.4177C64.7491 16.0434 65.3026 15.8562 65.8126 15.8562C66.2977 15.8562 66.6087 15.8811 66.7455 15.931V18.4394C66.5589 18.3271 66.3164 18.2335 66.0178 18.1586C65.7193 18.0837 65.4208 18.0463 65.1222 18.0463C64.4132 18.0463 63.8286 18.1961 63.3684 18.4956V24.9911L65.682 25.2719V26.3202H59.4874V25.2719L60.7562 25.0473Z" fill="#08090D"/>
<path d="M72.9198 26.5635C72.1237 26.5635 71.2779 26.4824 70.3823 26.3202C69.4867 26.158 68.8461 25.9708 68.4605 25.7586V22.3704H69.58L70.3263 24.3734C70.6248 24.7478 71.0042 25.0036 71.4644 25.1409C71.9247 25.2782 72.4596 25.3468 73.0691 25.3468C73.7408 25.3468 74.3005 25.1596 74.7483 24.7852C75.2085 24.4108 75.4387 23.8805 75.4387 23.1941C75.4387 22.6575 75.2023 22.1708 74.7296 21.734C74.2694 21.2972 73.6164 20.8355 72.7705 20.3488C71.7879 19.8122 71.0104 19.3442 70.4382 18.9448C69.8661 18.5455 69.3934 18.0837 69.0202 17.5596C68.6595 17.023 68.4791 16.4053 68.4791 15.7064C68.4791 14.9202 68.703 14.2525 69.1508 13.7034C69.6111 13.1419 70.1957 12.7176 70.9047 12.4305C71.6137 12.1435 72.3476 12 73.1064 12C73.8278 12 74.5928 12.0686 75.4013 12.2059C76.2099 12.3432 76.7758 12.4992 77.0992 12.6739V15.4818H75.9051L75.1028 13.6473C74.9287 13.51 74.655 13.3977 74.2818 13.3103C73.9087 13.2105 73.548 13.1606 73.1997 13.1606C72.615 13.1606 72.0926 13.3103 71.6324 13.6099C71.1721 13.9094 70.942 14.3711 70.942 14.9951C70.942 15.644 71.2094 16.2118 71.7443 16.6985C72.2916 17.1727 73.1313 17.7156 74.2632 18.3271C75.4573 18.9635 76.3778 19.6 77.0246 20.2365C77.6714 20.8729 77.9948 21.6466 77.9948 22.5576C77.9948 23.4312 77.7647 24.1737 77.3045 24.7852C76.8567 25.3842 76.2472 25.8335 75.476 26.133C74.7048 26.42 73.8527 26.5635 72.9198 26.5635Z" fill="#08090D"/>
<path d="M84.9557 15.8C86.2245 15.8 87.2196 16.2305 87.941 17.0916C88.6749 17.9527 89.0419 19.2131 89.0419 20.8729C89.0419 21.9087 88.7993 22.8571 88.3142 23.7182C87.8415 24.5793 87.1822 25.2657 86.3364 25.7773C85.503 26.2765 84.5763 26.5261 83.5563 26.5261C83.32 26.5261 83.0463 26.5012 82.7354 26.4512C82.4244 26.4138 82.2378 26.3888 82.1756 26.3764L82.2689 28.3044V29.6897L84.0601 29.933V31H78.4813V29.933L79.6754 29.6897V18.4768L78.4253 17.6345V16.736L81.392 15.8374L81.9144 16.0246V17.1478C82.1507 16.7984 82.5612 16.4864 83.1458 16.2118C83.7429 15.9373 84.3462 15.8 84.9557 15.8ZM83.8735 17.2788C83.5501 17.2788 83.2391 17.3599 82.9406 17.5222C82.6545 17.6719 82.4244 17.8404 82.2502 18.0276V24.4857C82.3622 24.7228 82.5799 24.9038 82.9033 25.0286C83.2267 25.1409 83.5936 25.197 84.0041 25.197C84.4768 25.197 84.8935 25.0348 85.2542 24.7103C85.6274 24.3734 85.9197 23.9054 86.1312 23.3064C86.3426 22.6949 86.4484 21.9773 86.4484 21.1537C86.4484 19.9307 86.212 18.9823 85.7393 18.3084C85.2667 17.622 84.6447 17.2788 83.8735 17.2788Z" fill="#08090D"/>
<path d="M95.2797 15.7813C96.8719 15.7688 98.0909 16.2305 98.9367 17.1665C99.7826 18.1025 100.199 19.3816 100.187 21.0039C100.187 22.1021 99.9629 23.0755 99.5151 23.9241C99.0673 24.7603 98.4578 25.4092 97.6866 25.8709C96.9154 26.3202 96.0385 26.5448 95.0558 26.5448C93.4263 26.5448 92.1824 26.0581 91.3241 25.0847C90.4783 24.0989 90.0554 22.801 90.0554 21.1911C90.0554 20.0929 90.2793 19.1445 90.7271 18.3458C91.1873 17.5346 91.8093 16.9107 92.5929 16.4739C93.389 16.0371 94.2846 15.8062 95.2797 15.7813ZM95.1491 16.998C94.3157 16.998 93.7186 17.3412 93.3579 18.0276C93.0096 18.714 92.8355 19.6749 92.8355 20.9103C92.8355 22.0959 93.0345 23.1255 93.4325 23.999C93.8306 24.8726 94.409 25.3094 95.1677 25.3094C96.0136 25.3094 96.6044 24.9475 96.9403 24.2236C97.2761 23.4874 97.4441 22.4578 97.4441 21.135C97.4441 19.912 97.2575 18.9199 96.8843 18.1586C96.5111 17.3849 95.9327 16.998 95.1491 16.998Z" fill="#08090D"/>
<path d="M104.291 16.0995H107.313V17.5409H104.365V21.397C104.365 22.3455 104.384 23.0506 104.421 23.5123C104.459 23.9741 104.552 24.3235 104.701 24.5606C104.851 24.7852 105.093 24.8975 105.429 24.8975C105.678 24.8975 105.976 24.8601 106.325 24.7852C106.685 24.7103 106.94 24.6292 107.09 24.5419L107.5 25.4966C107.189 25.821 106.71 26.0768 106.063 26.264C105.416 26.4512 104.801 26.5448 104.216 26.5448C103.37 26.5448 102.761 26.3077 102.388 25.8335C102.014 25.3468 101.828 24.5793 101.828 23.531V17.5409H100.466V16.6611C101.013 16.5363 101.393 16.424 101.604 16.3241C101.828 16.2243 102.014 16.0558 102.164 15.8187C102.375 15.4943 102.668 14.7704 103.041 13.6473H104.291V16.0995Z" fill="#08090D"/>
<path fill-rule="evenodd" clip-rule="evenodd" d="M21.5 0H0.500013L0.5 32L11.5 21H21.5V0ZM17.4999 3.99997H13.4999V17H17.4999V3.99997Z" fill="#FFD700"/>
</svg>
